<?xml version="1.0" encoding="UTF-8"?>
<svg width="50px" height="50px" viewBox="0 0 22 22" version="1.1"
     xmlns="http://www.w3.org/2000/svg"
     xmlns:xlink="http://www.w3.org/1999/xlink">
    <title>Bevy icon</title>
    <g id="Bevy-icon" stroke="none" stroke-width="1" fill="none"
       fill-rule="evenodd">
        <g id="Bevy-icon-circle"
           transform="translate(-811.000000, -392.000000)" fill="#14FAF4">
            <g id="Bevy-icon-carveout"
               transform="translate(465.000000, 305.000000)">
                <path d="M356.971722,87 C350.863753,87 346,91.9203085 346,98.0282776 C346,104.079692 350.920308,109 357.028278,109 C363.079692,109 368,104.079692 368,97.9717224 C368,91.8637532 363.023136,87 356.971722,87 Z M358.046272,104.305913 L352.843188,104.305913 C352.560411,104.305913 352.33419,104.079692 352.33419,103.796915 L352.33419,99.7249357 C352.33419,99.4987147 352.447301,99.3290488 352.673522,99.2159383 L354.822622,98.3676093 C355.161954,98.2544987 355.161954,97.7455013 354.822622,97.6323907 L352.673522,96.7840617 C352.447301,96.7275064 352.33419,96.5012853 352.33419,96.2750643 L352.33419,92.2030848 C352.33419,91.9203085 352.560411,91.6940874 352.843188,91.6940874 L357.933162,91.6940874 C360.138817,91.6940874 361.439589,92.9948586 361.439589,94.9177378 C361.439589,96.1053985 360.817481,97.0102828 360.025707,97.5192802 C359.799486,97.6323907 359.799486,97.9717224 360.025707,98.0848329 C360.987147,98.5938303 361.66581,99.7249357 361.66581,100.912596 C361.66581,102.892031 360.308483,104.249357 358.046272,104.305913 Z"
                      id="Bevy-icon-carveout-path"></path>
            </g>
        </g>
    </g>
</svg>
